<svg xmlns="http://www.w3.org/2000/svg" viewBox="0 0 197.4 40" role="img" aria-label="Atelier — Bridal Boutique &amp; Gown Fitting Salon">
  <g transform="translate(159.4,3) scale(1.41667)" fill="none" stroke="#5C2233" stroke-width="1.4118" stroke-linecap="round" stroke-linejoin="round">
    <path d="M10,5 Q12,6.6 14,5 M10,5 C9.3,7.5 10,10 11,12 M14,5 C14.7,7.5 14,10 13,12 M11,12 L13,12 M11,12 C7,15 3,17.5 4,21 M13,12 C17,15 21,17.5 20,21 M4,21 Q12,23 20,21"/>
  </g>
  <g transform="translate(4.291,31.500)" fill="#5C2233">
    <path d="M26.07043737923766 -0.4363253117864043Q26.252239592481995 -0.4363253117864043 26.252239592481995 -0.21816265589320216Q26.252239592481995 0.0 26.07043737923766 0.0Q24.979624099771648 0.0 23.79790971368347 -0.07272088529773406Q22.616195327595292 -0.14544177059546812 21.52538204812928 -0.14544177059546812Q20.289126998067804 -0.14544177059546812 19.380115931846127 -0.07272088529773406Q18.47110486562445 0.0 17.34393114350957 0.0Q17.198489372914104 0.0 17.198489372914104 -0.21816265589320216Q17.198489372914104 -0.4363253117864043 17.34393114350957 -0.4363253117864043Q18.83470929211312 -0.4363253117864043 19.071052169330756 -1.0362726154927104Q19.307395046548393 -1.6362199191990163 18.398383980326717 -3.417881608993501L15.925873880203758 -8.32654136659055H6.981204988582469L5.5631477252766555 -5.163182856139118Q4.581415773757246 -2.9815562972070966 5.526787282627788 -1.7089408044967505Q6.472158791498331 -0.4363253117864043 8.508343579834884 -0.4363253117864043Q8.69014579307922 -0.4363253117864043 8.69014579307922 -0.21816265589320216Q8.69014579307922 0.0 8.508343579834884 0.0Q7.417530300368874 0.0 6.508519234147198 -0.07272088529773406Q5.5995081679255225 -0.14544177059546812 4.217811347268575 -0.14544177059546812Q2.7997540839627613 -0.14544177059546812 1.9452836817143861 -0.07272088529773406Q1.0908132794660108 0.0 -0.14544177059546812 0.0Q-0.29088354119093623 0.0 -0.29088354119093623 -0.21816265589320216Q-0.29088354119093623 -0.4363253117864043 -0.14544177059546812 -0.4363253117864043Q0.8362901809239417 -0.4363253117864043 1.5453188125768487 -0.8544704022483752Q2.2543474442297557 -1.2726154927103461 2.963376075882663 -2.3816089935007905Q3.67240470753557 -3.4906024942912346 4.581415773757246 -5.526787282627788L12.47163182856139 -22.870718426137362Q12.507992271210258 -22.979799754083963 12.798875812401194 -22.9979799754084Q13.08975935359213 -23.01616019673283 13.126119796240998 -22.870718426137362L22.216230458457755 -4.981380642894783Q23.088881082030564 -3.2724398383980327 23.725188828385736 -2.2725276655541893Q24.361496574740908 -1.2726154927103461 24.92508343579835 -0.8544704022483752Q25.488670296855787 -0.4363253117864043 26.07043737923766 -0.4363253117864043ZM15.380467240470754 -9.344633760758827 11.199016335851045 -17.63481468470051 7.453890743017741 -9.344633760758827Z"/>
    <path d="M33.015281925171266 -21.88898647461795Q30.79729492359037 -21.88898647461795 29.251976111013523 -20.416388547338837Q27.706657298436674 -18.943790620059723 26.797646232215 -16.253117864043563Q26.76128578956613 -16.144036536096962 26.5794835763218 -16.162216757421398Q26.397681363077464 -16.18039697874583 26.397681363077464 -16.28947830669243Q26.470402248375198 -16.798524503776566 26.543123133672932 -17.725715791322678Q26.615844018970666 -18.652907078868786 26.706745125592832 -19.743720358334798Q26.797646232215 -20.834533637800806 26.8521868961883 -21.852626031969084Q26.9067275601616 -22.870718426137362 26.9067275601616 -23.52520639381697Q26.9067275601616 -23.707008607061304 27.106709994730366 -23.707008607061304Q27.306692429299137 -23.707008607061304 27.306692429299137 -23.52520639381697Q27.306692429299137 -23.1616019673283 27.68847707711224 -22.9979799754084Q28.070261724925345 -22.834357983488495 28.56112770068505 -22.779817319515196Q29.051993676444756 -22.725276655541894 29.37923766028456 -22.725276655541894Q32.50623572808712 -22.616195327595292 36.68768663270683 -22.616195327595292Q39.23291761812752 -22.616195327595292 40.76005620937994 -22.67073599156859Q42.28719480063235 -22.725276655541894 43.70525206393817 -22.725276655541894Q45.01422799929738 -22.725276655541894 45.68689618830142 -22.888898647461794Q46.35956437730546 -23.052520639381697 46.5413665905498 -23.63428772176357Q46.57772703319866 -23.77972949235904 46.77770946776744 -23.77972949235904Q46.977691902336204 -23.77972949235904 46.977691902336204 -23.63428772176357Q46.90497101703846 -23.052520639381697 46.850430353065164 -22.016248023888984Q46.795889689091865 -20.979975408396275 46.741349025118566 -19.834621464956964Q46.68680836114527 -18.689267521517653 46.6504479184964 -17.725715791322678Q46.614087475847526 -16.7621640611277 46.614087475847526 -16.28947830669243Q46.614087475847526 -16.18039697874583 46.432285262603195 -16.18039697874583Q46.25048304935886 -16.18039697874583 46.21412260670999 -16.28947830669243Q45.66871596697699 -19.161953275952925 44.15975759704901 -20.525469875285438Q42.65079922712103 -21.88898647461795 40.505533110837874 -21.88898647461795Q39.77832425786053 -21.88898647461795 39.39653961004743 -21.689004040049184Q39.01475496223432 -21.489021605480414 38.88749341296329 -21.01633585104514Q38.760231863692255 -20.54365009660987 38.760231863692255 -19.70735991568593V-2.9451958545582295Q38.760231863692255 -1.8907430177410856 38.97839451958546 -1.34533637800808Q39.19655717547866 -0.7999297382750746 39.83286492183383 -0.6181275250307394Q40.469172668189 -0.4363253117864043 41.77814860354822 -0.4363253117864043Q41.887229931494815 -0.4363253117864043 41.887229931494815 -0.21816265589320216Q41.887229931494815 0.0 41.77814860354822 0.0Q40.76005620937994 0.0 39.487440716669596 -0.03636044264886703Q38.214825223959245 -0.07272088529773406 36.68768663270683 -0.07272088529773406Q35.233268926752146 -0.07272088529773406 33.9606534340418 -0.03636044264886703Q32.68803794133146 0.0 31.633585104514314 0.0Q31.524503776567713 0.0 31.524503776567713 -0.21816265589320216Q31.524503776567713 -0.4363253117864043 31.633585104514314 -0.4363253117864043Q32.90620059722466 -0.4363253117864043 33.56068856490427 -0.6181275250307394Q34.215176532583875 -0.7999297382750746 34.451519409801506 -1.34533637800808Q34.68786228701914 -1.8907430177410856 34.68786228701914 -2.9451958545582295V-19.780080800983665Q34.68786228701914 -20.580010539258737 34.56060073774811 -21.034516072369577Q34.43333918847708 -21.489021605480414 34.06973476198841 -21.689004040049184Q33.706130335499736 -21.88898647461795 33.015281925171266 -21.88898647461795Z"/>
    <path d="M64.79430880028104 0.0H48.722993149481816Q48.61391182153522 0.0 48.61391182153522 -0.21816265589320216Q48.61391182153522 -0.4363253117864043 48.722993149481816 -0.4363253117864043Q49.8501668715967 -0.4363253117864043 50.3955735113297 -0.6181275250307394Q50.9409801510627 -0.7999297382750746 51.12278236430704 -1.34533637800808Q51.30458457755138 -1.8907430177410856 51.30458457755138 -2.9451958545582295V-19.780080800983665Q51.30458457755138 -20.834533637800806 51.12278236430704 -21.361760056209377Q50.9409801510627 -21.88898647461795 50.3955735113297 -22.08896890918672Q49.8501668715967 -22.28895134375549 48.722993149481816 -22.28895134375549Q48.61391182153522 -22.28895134375549 48.61391182153522 -22.50711399964869Q48.61391182153522 -22.725276655541894 48.722993149481816 -22.725276655541894H64.13982083260143Q64.50342525909011 -22.725276655541894 64.50342525909011 -22.39803267170209L64.57614614438785 -17.562093799402774Q64.57614614438785 -17.48937291410504 64.39434393114351 -17.453012471456173Q64.21254171789917 -17.416652028807306 64.13982083260143 -17.525733356753907Q63.55805375021957 -19.670999473037064 62.17635692956262 -20.670911645880906Q60.794660108905674 -21.67082381872475 58.540312664675916 -21.67082381872475H57.449499385209904Q56.72229053223256 -21.67082381872475 56.24960477779729 -21.47084138415598Q55.77691902336202 -21.27085894958721 55.55875636746882 -20.83453363780081Q55.34059371157562 -20.398208326014405 55.34059371157562 -19.743720358334798V-12.326190057965922H58.358510451431584Q60.50377656771474 -12.326190057965922 61.612770068505185 -13.071579132267697Q62.721763569295625 -13.816968206569472 62.721763569295625 -15.089583699279817Q62.721763569295625 -15.198665027226419 62.92174600386439 -15.198665027226419Q63.12172843843316 -15.198665027226419 63.12172843843316 -15.089583699279817Q63.12172843843316 -13.889689091867206 63.103548217108724 -13.217020902863165Q63.085367995784296 -12.544352713859125 63.085367995784296 -11.817143860881785Q63.085367995784296 -10.908132794660109 63.139908659757594 -10.035482171087299Q63.19444932373089 -9.162831547514491 63.19444932373089 -8.108378710697348Q63.19444932373089 -8.035657825399614 62.97628666783769 -8.035657825399614Q62.75812401194449 -8.035657825399614 62.75812401194449 -8.108378710697348Q62.75812401194449 -9.599156859300896 61.63095028982961 -10.453627261549272Q60.50377656771474 -11.308097663797646 58.322150008782714 -11.308097663797646H55.34059371157562V-3.0906376251536973Q55.34059371157562 -2.399789214825224 55.52239592481995 -1.9271034603899526Q55.704198138064285 -1.4544177059546812 56.067802564552956 -1.236255050061479Q56.43140699104163 -1.018092394168277 57.0131740734235 -1.018092394168277H58.213068680836116Q61.04918320744774 -1.018092394168277 62.75812401194449 -2.181626558932022Q64.46706481644124 -3.345160723695767 65.26699455471632 -5.781310381169858Q65.30335499736518 -5.890391709116459 65.50333743193394 -5.8358510451431584Q65.70331986650272 -5.781310381169858 65.70331986650272 -5.708589495872124Q65.55787809590726 -4.65413665905498 65.44879676796066 -3.217899174424732Q65.33971544001405 -1.7816616897944844 65.33971544001405 -0.5454066397330054Q65.33971544001405 0.0 64.79430880028104 0.0Z"/>
    <path d="M73.95714034779553 -19.743720358334798V-3.0906376251536973Q73.95714034779553 -2.2179870015808887 74.102582118391 -1.7634814684700508Q74.24802388898647 -1.308975935359213 74.70252942209731 -1.163534164763745Q75.15703495520815 -1.018092394168277 76.02968557878096 -1.018092394168277H77.26594062884243Q80.10205515545407 -1.018092394168277 82.1746003864395 -2.5452309854206923Q84.2471456174249 -4.072369576673108 84.93799402775338 -6.617600562093799Q84.97435447040225 -6.726681890040401 85.15615668364657 -6.690321447391534Q85.33795889689091 -6.6539610047426665 85.33795889689091 -6.544879676796065Q85.22887756894431 -5.344985069383453 85.11979624099772 -3.6542244862111364Q85.01071491305112 -1.9634639030388197 85.01071491305112 -0.5454066397330054Q85.01071491305112 0.0 84.4653082733181 0.0H67.30317934305286Q67.23045845775513 0.0 67.23045845775513 -0.21816265589320216Q67.23045845775513 -0.4363253117864043 67.30317934305286 -0.4363253117864043Q68.43035306516775 -0.4363253117864043 68.97575970490075 -0.6181275250307394Q69.52116634463376 -0.7999297382750746 69.72114877920252 -1.34533637800808Q69.92113121377129 -1.8907430177410856 69.92113121377129 -2.9451958545582295V-19.780080800983665Q69.92113121377129 -20.834533637800806 69.72114877920252 -21.361760056209377Q69.52116634463376 -21.88898647461795 68.97575970490075 -22.08896890918672Q68.43035306516775 -22.28895134375549 67.30317934305286 -22.28895134375549Q67.23045845775513 -22.28895134375549 67.23045845775513 -22.50711399964869Q67.23045845775513 -22.725276655541894 67.30317934305286 -22.725276655541894Q68.17582996662567 -22.725276655541894 69.39390479536272 -22.67073599156859Q70.61197962409976 -22.616195327595292 71.92095555945897 -22.616195327595292Q73.30265238011593 -22.616195327595292 74.46618654487968 -22.67073599156859Q75.62972070964342 -22.725276655541894 76.53873177586509 -22.725276655541894Q76.6478131038117 -22.725276655541894 76.6478131038117 -22.50711399964869Q76.6478131038117 -22.28895134375549 76.53873177586509 -22.28895134375549Q75.44791849639908 -22.28895134375549 74.88433163534165 -22.08896890918672Q74.32074477428421 -21.88898647461795 74.13894256103987 -21.343579834884945Q73.95714034779553 -20.79817319515194 73.95714034779553 -19.743720358334798Z"/>
    <path d="M93.1918145090462 -2.9451958545582295Q93.1918145090462 -1.8907430177410856 93.37361672229054 -1.34533637800808Q93.55541893553486 -0.7999297382750746 94.10082557526786 -0.6181275250307394Q94.64623221500088 -0.4363253117864043 95.77340593711575 -0.4363253117864043Q95.88248726506235 -0.4363253117864043 95.88248726506235 -0.21816265589320216Q95.88248726506235 0.0 95.77340593711575 0.0Q94.8280344282452 0.0 93.66450026348147 -0.03636044264886703Q92.50096609871773 -0.07272088529773406 91.11926927806077 -0.07272088529773406Q89.81029334270156 -0.07272088529773406 88.61039873528895 -0.03636044264886703Q87.41050412787634 0.0 86.46513261900579 0.0Q86.39241173370806 0.0 86.39241173370806 -0.21816265589320216Q86.39241173370806 -0.4363253117864043 86.46513261900579 -0.4363253117864043Q87.59230634112068 -0.4363253117864043 88.1558932021781 -0.6181275250307394Q88.71948006323555 -0.7999297382750746 88.91946249780432 -1.34533637800808Q89.11944493237309 -1.8907430177410856 89.11944493237309 -2.9451958545582295V-19.780080800983665Q89.11944493237309 -20.834533637800806 88.91946249780432 -21.361760056209377Q88.71948006323555 -21.88898647461795 88.1558932021781 -22.08896890918672Q87.59230634112068 -22.28895134375549 86.46513261900579 -22.28895134375549Q86.39241173370806 -22.28895134375549 86.39241173370806 -22.50711399964869Q86.39241173370806 -22.725276655541894 86.46513261900579 -22.725276655541894Q87.41050412787634 -22.725276655541894 88.61039873528895 -22.67073599156859Q89.81029334270156 -22.616195327595292 91.11926927806077 -22.616195327595292Q92.50096609871773 -22.616195327595292 93.6826804848059 -22.67073599156859Q94.86439487089407 -22.725276655541894 95.77340593711575 -22.725276655541894Q95.88248726506235 -22.725276655541894 95.88248726506235 -22.50711399964869Q95.88248726506235 -22.28895134375549 95.77340593711575 -22.28895134375549Q94.68259265764974 -22.28895134375549 94.11900579659229 -22.070788687862287Q93.55541893553486 -21.852626031969084 93.37361672229054 -21.307219392236078Q93.1918145090462 -20.761812752503072 93.1918145090462 -19.70735991568593Z"/>
    <path d="M113.84454593360266 0.0H97.77323028280344Q97.66414895485683 0.0 97.66414895485683 -0.21816265589320216Q97.66414895485683 -0.4363253117864043 97.77323028280344 -0.4363253117864043Q98.90040400491831 -0.4363253117864043 99.44581064465132 -0.6181275250307394Q99.99121728438432 -0.7999297382750746 100.17301949762866 -1.34533637800808Q100.354821710873 -1.8907430177410856 100.354821710873 -2.9451958545582295V-19.780080800983665Q100.354821710873 -20.834533637800806 100.17301949762866 -21.361760056209377Q99.99121728438432 -21.88898647461795 99.44581064465132 -22.08896890918672Q98.90040400491831 -22.28895134375549 97.77323028280344 -22.28895134375549Q97.66414895485683 -22.28895134375549 97.66414895485683 -22.50711399964869Q97.66414895485683 -22.725276655541894 97.77323028280344 -22.725276655541894H113.19005796592305Q113.55366239241172 -22.725276655541894 113.55366239241172 -22.39803267170209L113.62638327770946 -17.562093799402774Q113.62638327770946 -17.48937291410504 113.44458106446513 -17.453012471456173Q113.26277885122079 -17.416652028807306 113.19005796592305 -17.525733356753907Q112.60829088354119 -19.670999473037064 111.22659406288423 -20.670911645880906Q109.84489724222729 -21.67082381872475 107.59054979799754 -21.67082381872475H106.49973651853152Q105.77252766555418 -21.67082381872475 105.2998419111189 -21.47084138415598Q104.82715615668364 -21.27085894958721 104.60899350079043 -20.83453363780081Q104.39083084489724 -20.398208326014405 104.39083084489724 -19.743720358334798V-12.326190057965922H107.4087475847532Q109.55401370103635 -12.326190057965922 110.6630072018268 -13.071579132267697Q111.77200070261725 -13.816968206569472 111.77200070261725 -15.089583699279817Q111.77200070261725 -15.198665027226419 111.97198313718602 -15.198665027226419Q112.17196557175478 -15.198665027226419 112.17196557175478 -15.089583699279817Q112.17196557175478 -13.889689091867206 112.15378535043035 -13.217020902863165Q112.13560512910591 -12.544352713859125 112.13560512910591 -11.817143860881785Q112.13560512910591 -10.908132794660109 112.19014579307921 -10.035482171087299Q112.24468645705251 -9.162831547514491 112.24468645705251 -8.108378710697348Q112.24468645705251 -8.035657825399614 112.0265238011593 -8.035657825399614Q111.8083611452661 -8.035657825399614 111.8083611452661 -8.108378710697348Q111.8083611452661 -9.599156859300896 110.68118742315123 -10.453627261549272Q109.55401370103635 -11.308097663797646 107.37238714210433 -11.308097663797646H104.39083084489724V-3.0906376251536973Q104.39083084489724 -2.399789214825224 104.57263305814158 -1.9271034603899526Q104.7544352713859 -1.4544177059546812 105.11803969787456 -1.236255050061479Q105.48164412436324 -1.018092394168277 106.06341120674512 -1.018092394168277H107.26330581415773Q110.09942034076936 -1.018092394168277 111.8083611452661 -2.181626558932022Q113.51730194976285 -3.345160723695767 114.31723168803794 -5.781310381169858Q114.35359213068679 -5.890391709116459 114.55357456525556 -5.8358510451431584Q114.75355699982434 -5.781310381169858 114.75355699982434 -5.708589495872124Q114.60811522922887 -4.65413665905498 114.49903390128227 -3.217899174424732Q114.38995257333566 -1.7816616897944844 114.38995257333566 -0.5454066397330054Q114.38995257333566 0.0 113.84454593360266 0.0Z"/>
    <path d="M134.533637800808 0.0Q133.988231161075 0.0 132.77015633233793 -1.3635165993325136Q131.5520815036009 -2.727033198665027 129.84314069910414 -5.308624626734586Q128.243281222554 -7.7084138415598105 126.27981731951519 -10.980853679957843Q125.87985245037764 -10.944493237308976 125.44352713859124 -10.944493237308976H124.42543474442296Q123.88002810468996 -10.944493237308976 123.44370279290355 -10.980853679957843V-2.9451958545582295Q123.44370279290355 -1.8907430177410856 123.62550500614789 -1.34533637800808Q123.80730721939223 -0.7999297382750746 124.35271385912523 -0.6181275250307394Q124.89812049885823 -0.4363253117864043 126.02529422097311 -0.4363253117864043Q126.09801510627085 -0.4363253117864043 126.09801510627085 -0.21816265589320216Q126.09801510627085 0.0 126.02529422097311 0.0Q125.07992271210257 0.0 123.91638854733883 -0.03636044264886703Q122.75285438257508 -0.07272088529773406 121.37115756191814 -0.07272088529773406Q120.06218162655892 -0.07272088529773406 118.88046724047075 -0.03636044264886703Q117.69875285438256 0.0 116.75338134551203 0.0Q116.64430001756541 0.0 116.64430001756541 -0.21816265589320216Q116.64430001756541 -0.4363253117864043 116.75338134551203 -0.4363253117864043Q117.8805550676269 -0.4363253117864043 118.4259617073599 -0.6181275250307394Q118.9713683470929 -0.7999297382750746 119.17135078166169 -1.34533637800808Q119.37133321623045 -1.8907430177410856 119.37133321623045 -2.9451958545582295V-19.780080800983665Q119.37133321623045 -20.834533637800806 119.18953100298612 -21.361760056209377Q119.00772878974178 -21.88898647461795 118.46232215000877 -22.08896890918672Q117.91691551027577 -22.28895134375549 116.78974178816088 -22.28895134375549Q116.71702090286315 -22.28895134375549 116.71702090286315 -22.50711399964869Q116.71702090286315 -22.725276655541894 116.78974178816088 -22.725276655541894Q117.73511329703143 -22.725276655541894 118.89864746179518 -22.67073599156859Q120.06218162655892 -22.616195327595292 121.37115756191814 -22.616195327595292Q122.57105216933074 -22.616195327595292 124.00728965396098 -22.725276655541894Q125.44352713859124 -22.834357983488495 126.71614263130158 -22.834357983488495Q130.06130335499736 -22.834357983488495 131.8611452661163 -21.61628315475145Q133.6609871772352 -20.398208326014405 133.6609871772352 -18.21658176708238Q133.6609871772352 -16.071315650799228 132.46109256982257 -14.43509573160021Q131.37027929035656 -12.871596697698928 129.6613384858598 -11.99894607412612Q132.35201124187597 -7.962936940101879 134.31547514491479 -5.454066397330054Q136.35165993325134 -2.7997540839627613 137.9515194098015 -1.6180396978745828Q139.55137888635164 -0.4363253117864043 141.00579659230633 -0.4363253117864043Q141.07851747760407 -0.4363253117864043 141.07851747760407 -0.21816265589320216Q141.07851747760407 0.0 141.00579659230633 0.0ZM129.51589671526435 -16.834884946425433Q129.51589671526435 -18.98015106270859 129.07957140347793 -20.10732478482347Q128.64324609169154 -21.234498506938344 127.87967679606533 -21.652643597400314Q127.11610750043913 -22.070788687862287 126.1343755489197 -22.070788687862287Q124.67995784296504 -22.070788687862287 124.0618303179343 -21.52538204812928Q123.44370279290355 -20.979975408396275 123.44370279290355 -19.70735991568593V-11.99894607412612Q123.9527489899877 -11.926225188828386 124.53451607236957 -11.88986474617952Q125.11628315475144 -11.853504303530652 125.55260846653783 -11.853504303530652Q127.697874582821 -11.853504303530652 128.60688564904268 -13.03521868961883Q129.51589671526435 -14.216933075707008 129.51589671526435 -16.834884946425433Z"/>
  </g>
</svg>
